<svg viewBox="0 0 40 40" fill="currentColor" xmlns="http://www.w3.org/2000/svg"><path fill-rule="evenodd" clip-rule="evenodd" d="M31 17H9v4.028a8.854 8.854 0 0 0-3-.017v-5.136c0-.563.125-1.125.375-1.625L9 8.375A3.97 3.97 0 0 1 12.625 6h14.813c1.562 0 3 .938 3.625 2.375l2.625 5.875c.25.5.312 1.063.312 1.625V30c0 2.25-1.75 4-4 4H15.128a8.742 8.742 0 0 0 1.027-3H30c.563 0 1-.438 1-1V17ZM18.5 9h-5.875c-.375 0-.75.25-.937.625L9.75 14h8.75V9Zm3 5h8.813l-2-4.375A.94.94 0 0 0 27.438 9H21.5v5Z"/><path d="M9.006 31.05h.016l2.434-2.442c.496-.51 1.59-.533 2.123 0a1.476 1.476 0 0 1 0 2.066L8.585 35.68c-.625.626-1.561.626-2.123 0l-4.994-5.007a1.373 1.373 0 0 1 0-2.066c.562-.626 1.498-.626 2.123 0l2.419 2.425c0-3.724-.008-2.66-.008-6.385a1.498 1.498 0 0 1 2.996 0l.008 6.401Z"/></svg>