<svg viewBox="0 0 40 40" fill="currentColor" xmlns="http://www.w3.org/2000/svg"><path d="M34.713 24.99 9.697 20.363 6.92 35.374 31.937 40l2.776-15.01Z" fill="#52138E"/><path d="M12.437 18.656a.684.684 0 0 1 .797-.548l6.475 1.197a.684.684 0 0 1 .548.797l-.396 2.141-7.817-1.445.396-2.141h-.003Zm19.93 5.9.396-2.142a.684.684 0 0 0-.548-.797l-6.474-1.197a.684.684 0 0 0-.797.548l-.396 2.142 7.82 1.446Z" fill="#52138E"/><path d="M31.359 2.61 6 4.64l1.218 15.217 25.36-2.03-1.22-15.217Z" fill="#0DADE4"/><path d="M8.203 2.28a.684.684 0 0 1 .627-.737l6.563-.526c.377-.03.706.25.737.628l.174 2.17-7.924.635-.174-2.171h-.003Zm20.778.52L28.808.63a.684.684 0 0 0-.737-.628l-6.563.526a.684.684 0 0 0-.627.736l.174 2.17L28.98 2.8Z" fill="#0DADE4"/></svg>