<svg viewBox="0 0 40 40" fill="currentColor" xmlns="http://www.w3.org/2000/svg"><path d="M16.111 9.687c-.614 0-1.111.533-1.111 1.19v1.068h4.222v-1.068c0-.657-.497-1.19-1.11-1.19h-2Zm4.667 2.258H25v-1.068c0-.657-.497-1.19-1.111-1.19h-2c-.614 0-1.111.533-1.111 1.19v1.068ZM26 13.214H14V20h12v-6.786Z"/><path fill-rule="evenodd" clip-rule="evenodd" d="M31 5H9v30h22V5ZM9 2a3 3 0 0 0-3 3v30a3 3 0 0 0 3 3h22a3 3 0 0 0 3-3V5a3 3 0 0 0-3-3H9Z"/><path fill-rule="evenodd" clip-rule="evenodd" d="M14 25c0-.552.433-1 .968-1h10.064c.535 0 .968.448.968 1s-.433 1-.968 1H14.968c-.535 0-.968-.448-.968-1Zm0 4c0-.552.433-1 .968-1h10.064c.535 0 .968.448.968 1s-.433 1-.968 1H14.968c-.535 0-.968-.448-.968-1Z"/></svg>