<svg viewBox="0 0 40 40" fill="currentColor" xmlns="http://www.w3.org/2000/svg"><path d="m35.106 30.318-7.039-5.204a12.603 12.603 0 0 0 1.58-8.099c-.98-6.979-7.489-11.856-14.537-10.894-7.039.971-11.958 7.425-10.988 14.413.98 6.989 7.489 11.866 14.537 10.894a12.879 12.879 0 0 0 6.849-3.162l7.308 5.383a2.05 2.05 0 0 0 2.83-.526c.63-.922.4-2.17-.53-2.805h-.01Zm-17.117-4.064c-4.359.604-8.378-2.419-8.978-6.731-.6-4.322 2.44-8.307 6.789-8.902 4.359-.604 8.378 2.419 8.978 6.731.6 4.322-2.44 8.307-6.789 8.902Z"/></svg>